<mxfile host="app.diagrams.net" agent="Mozilla/5.0 (Windows NT 10.0; Win64; x64) AppleWebKit/537.36 (KHTML, like Gecko) Chrome/131.0.0.0 Safari/537.36" version="25.0.3">
  <diagram name="‫עמוד-1‬" id="ACOyJPIHEDH3XEIacT1-">
    <mxGraphModel grid="1" page="1" gridSize="10" guides="1" tooltips="1" connect="1" arrows="1" fold="1" pageScale="1" pageWidth="1200" pageHeight="1600" background="#FFFFFF" math="0" shadow="0">
      <root>
        <mxCell id="0" />
        <mxCell id="1" parent="0" />
        <mxCell id="DXEIe3DoM291hjlUbm1r-54" value="Tool" style="swimlane;fontStyle=1;align=center;verticalAlign=top;childLayout=stackLayout;horizontal=1;startSize=26;horizontalStack=0;resizeParent=1;resizeParentMax=0;resizeLast=0;collapsible=1;marginBottom=0;whiteSpace=wrap;html=1;fillColor=#eeeeee;strokeColor=#36393d;" vertex="1" parent="1">
          <mxGeometry x="530" y="310" width="160" height="280" as="geometry" />
        </mxCell>
        <mxCell id="DXEIe3DoM291hjlUbm1r-55" value="&lt;span style=&quot;color: rgb(16, 20, 24); font-family: monospace, monospace; font-size: 16px; text-align: center; background-color: rgb(248, 249, 250);&quot;&gt;#&lt;/span&gt;board: Board&lt;br&gt;&lt;div&gt;&lt;span style=&quot;background-color: rgb(248, 249, 250); color: rgb(16, 20, 24); font-family: monospace, monospace; font-size: 16px; text-align: center;&quot;&gt;#&lt;/span&gt;type: char&lt;/div&gt;&lt;div&gt;&lt;span style=&quot;background-color: rgb(248, 249, 250); color: rgb(16, 20, 24); font-family: monospace, monospace; font-size: 16px; text-align: center;&quot;&gt;#&lt;/span&gt;row: int&lt;/div&gt;&lt;div&gt;&lt;span style=&quot;background-color: rgb(248, 249, 250); color: rgb(16, 20, 24); font-family: monospace, monospace; font-size: 16px; text-align: center;&quot;&gt;#&lt;/span&gt;cul: char&lt;/div&gt;" style="text;strokeColor=none;fillColor=none;align=left;verticalAlign=top;spacingLeft=4;spacingRight=4;overflow=hidden;rotatable=0;points=[[0,0.5],[1,0.5]];portConstraint=eastwest;whiteSpace=wrap;html=1;" vertex="1" parent="DXEIe3DoM291hjlUbm1r-54">
          <mxGeometry y="26" width="160" height="96" as="geometry" />
        </mxCell>
        <mxCell id="DXEIe3DoM291hjlUbm1r-56" value="" style="line;strokeWidth=1;fillColor=none;align=left;verticalAlign=middle;spacingTop=-1;spacingLeft=3;spacingRight=3;rotatable=0;labelPosition=right;points=[];portConstraint=eastwest;strokeColor=inherit;" vertex="1" parent="DXEIe3DoM291hjlUbm1r-54">
          <mxGeometry y="122" width="160" height="12" as="geometry" />
        </mxCell>
        <mxCell id="DXEIe3DoM291hjlUbm1r-57" value="&lt;div&gt;void move(char, int)&lt;/div&gt;&lt;div&gt;char getRow()&lt;/div&gt;&lt;div&gt;bool isBloced(int, char)&lt;/div&gt;&lt;div&gt;char getCul()&lt;/div&gt;&lt;div&gt;&lt;div&gt;char setRow()&lt;/div&gt;&lt;div&gt;char setCul()&lt;/div&gt;&lt;div&gt;string getLocation()&amp;nbsp;&amp;nbsp;&lt;/div&gt;&lt;/div&gt;&lt;div&gt;&lt;div&gt;string getType()&amp;nbsp;&amp;nbsp;&lt;/div&gt;&lt;/div&gt;&lt;div&gt;bool checkChess()&lt;/div&gt;" style="text;strokeColor=none;fillColor=none;align=left;verticalAlign=top;spacingLeft=4;spacingRight=4;overflow=hidden;rotatable=0;points=[[0,0.5],[1,0.5]];portConstraint=eastwest;whiteSpace=wrap;html=1;" vertex="1" parent="DXEIe3DoM291hjlUbm1r-54">
          <mxGeometry y="134" width="160" height="146" as="geometry" />
        </mxCell>
        <mxCell id="DXEIe3DoM291hjlUbm1r-58" style="edgeStyle=orthogonalEdgeStyle;rounded=0;orthogonalLoop=1;jettySize=auto;html=1;exitX=0.75;exitY=0.1;exitDx=0;exitDy=0;exitPerimeter=0;" edge="1" parent="1" source="DXEIe3DoM291hjlUbm1r-61">
          <mxGeometry relative="1" as="geometry">
            <mxPoint x="633" y="180" as="targetPoint" />
          </mxGeometry>
        </mxCell>
        <mxCell id="DXEIe3DoM291hjlUbm1r-59" style="edgeStyle=orthogonalEdgeStyle;rounded=0;orthogonalLoop=1;jettySize=auto;html=1;exitX=0.5;exitY=0;exitDx=0;exitDy=0;exitPerimeter=0;" edge="1" parent="1" source="DXEIe3DoM291hjlUbm1r-61">
          <mxGeometry relative="1" as="geometry">
            <mxPoint x="602.75" y="220" as="targetPoint" />
          </mxGeometry>
        </mxCell>
        <mxCell id="DXEIe3DoM291hjlUbm1r-60" style="edgeStyle=orthogonalEdgeStyle;rounded=0;orthogonalLoop=1;jettySize=auto;html=1;exitX=0.25;exitY=0.1;exitDx=0;exitDy=0;exitPerimeter=0;" edge="1" parent="1" source="DXEIe3DoM291hjlUbm1r-61">
          <mxGeometry relative="1" as="geometry">
            <mxPoint x="563" y="180" as="targetPoint" />
            <Array as="points">
              <mxPoint x="563" y="211" />
              <mxPoint x="563" y="180" />
            </Array>
          </mxGeometry>
        </mxCell>
        <mxCell id="DXEIe3DoM291hjlUbm1r-61" value="" style="shape=umlActor;verticalLabelPosition=bottom;verticalAlign=top;html=1;outlineConnect=0;" vertex="1" parent="1">
          <mxGeometry x="568" y="200" width="60" height="110" as="geometry" />
        </mxCell>
        <mxCell id="DXEIe3DoM291hjlUbm1r-62" value="Rook" style="swimlane;fontStyle=1;align=center;verticalAlign=top;childLayout=stackLayout;horizontal=1;startSize=26;horizontalStack=0;resizeParent=1;resizeParentMax=0;resizeLast=0;collapsible=1;marginBottom=0;whiteSpace=wrap;html=1;fillColor=#d5e8d4;strokeColor=#82b366;" vertex="1" parent="1">
          <mxGeometry x="100" y="650" width="160" height="120" as="geometry" />
        </mxCell>
        <mxCell id="DXEIe3DoM291hjlUbm1r-63" value="firstMove: bool" style="text;strokeColor=none;fillColor=none;align=left;verticalAlign=top;spacingLeft=4;spacingRight=4;overflow=hidden;rotatable=0;points=[[0,0.5],[1,0.5]];portConstraint=eastwest;whiteSpace=wrap;html=1;" vertex="1" parent="DXEIe3DoM291hjlUbm1r-62">
          <mxGeometry y="26" width="160" height="24" as="geometry" />
        </mxCell>
        <mxCell id="DXEIe3DoM291hjlUbm1r-64" value=" " style="line;strokeWidth=1;fillColor=none;align=left;verticalAlign=middle;spacingTop=-1;spacingLeft=3;spacingRight=3;rotatable=0;labelPosition=right;points=[];portConstraint=eastwest;strokeColor=inherit;" vertex="1" parent="DXEIe3DoM291hjlUbm1r-62">
          <mxGeometry y="50" width="160" height="18" as="geometry" />
        </mxCell>
        <mxCell id="DXEIe3DoM291hjlUbm1r-65" value="void move(char, int)&lt;div&gt;&lt;span style=&quot;background-color: initial;&quot;&gt;bool checkChess()&lt;/span&gt;&lt;/div&gt;&lt;div&gt;&lt;div&gt;bool isBloced(int, char)&lt;/div&gt;&lt;/div&gt;&lt;div&gt;&lt;br&gt;&lt;/div&gt;" style="text;strokeColor=none;fillColor=none;align=left;verticalAlign=top;spacingLeft=4;spacingRight=4;overflow=hidden;rotatable=0;points=[[0,0.5],[1,0.5]];portConstraint=eastwest;whiteSpace=wrap;html=1;" vertex="1" parent="DXEIe3DoM291hjlUbm1r-62">
          <mxGeometry y="68" width="160" height="52" as="geometry" />
        </mxCell>
        <mxCell id="DXEIe3DoM291hjlUbm1r-66" style="edgeStyle=orthogonalEdgeStyle;rounded=0;orthogonalLoop=1;jettySize=auto;html=1;" edge="1" parent="1" source="DXEIe3DoM291hjlUbm1r-67" target="DXEIe3DoM291hjlUbm1r-74">
          <mxGeometry relative="1" as="geometry">
            <mxPoint x="470" y="650.0000000000001" as="targetPoint" />
            <Array as="points">
              <mxPoint x="360" y="610" />
              <mxPoint x="820" y="610" />
            </Array>
          </mxGeometry>
        </mxCell>
        <mxCell id="DXEIe3DoM291hjlUbm1r-67" value="King" style="swimlane;fontStyle=1;align=center;verticalAlign=top;childLayout=stackLayout;horizontal=1;startSize=26;horizontalStack=0;resizeParent=1;resizeParentMax=0;resizeLast=0;collapsible=1;marginBottom=0;whiteSpace=wrap;html=1;fillColor=#dae8fc;strokeColor=#6c8ebf;" vertex="1" parent="1">
          <mxGeometry x="280" y="650" width="160" height="120" as="geometry" />
        </mxCell>
        <mxCell id="DXEIe3DoM291hjlUbm1r-68" value="firstMove: bool" style="text;strokeColor=none;fillColor=none;align=left;verticalAlign=top;spacingLeft=4;spacingRight=4;overflow=hidden;rotatable=0;points=[[0,0.5],[1,0.5]];portConstraint=eastwest;whiteSpace=wrap;html=1;" vertex="1" parent="DXEIe3DoM291hjlUbm1r-67">
          <mxGeometry y="26" width="160" height="24" as="geometry" />
        </mxCell>
        <mxCell id="DXEIe3DoM291hjlUbm1r-69" value="" style="line;strokeWidth=1;fillColor=none;align=left;verticalAlign=middle;spacingTop=-1;spacingLeft=3;spacingRight=3;rotatable=0;labelPosition=right;points=[];portConstraint=eastwest;strokeColor=inherit;" vertex="1" parent="DXEIe3DoM291hjlUbm1r-67">
          <mxGeometry y="50" width="160" height="8" as="geometry" />
        </mxCell>
        <mxCell id="DXEIe3DoM291hjlUbm1r-70" value="checkThreat()&lt;div&gt;&lt;div&gt;bool isBloced(int, char)&lt;/div&gt;void move(char, int)&lt;div&gt;&lt;span style=&quot;background-color: initial;&quot;&gt;bool checkChess()&lt;/span&gt;&lt;/div&gt;&lt;/div&gt;" style="text;strokeColor=none;fillColor=none;align=left;verticalAlign=top;spacingLeft=4;spacingRight=4;overflow=hidden;rotatable=0;points=[[0,0.5],[1,0.5]];portConstraint=eastwest;whiteSpace=wrap;html=1;" vertex="1" parent="DXEIe3DoM291hjlUbm1r-67">
          <mxGeometry y="58" width="160" height="62" as="geometry" />
        </mxCell>
        <mxCell id="DXEIe3DoM291hjlUbm1r-71" value="board" style="swimlane;fontStyle=1;align=center;verticalAlign=top;childLayout=stackLayout;horizontal=1;startSize=26;horizontalStack=0;resizeParent=1;resizeParentMax=0;resizeLast=0;collapsible=1;marginBottom=0;whiteSpace=wrap;html=1;fillColor=#f5f5f5;gradientColor=#000000;strokeColor=#666666;gradientDirection=radial;opacity=50;glass=0;swimlaneFillColor=none;" vertex="1" parent="1">
          <mxGeometry x="800" y="420" width="180" height="168" as="geometry" />
        </mxCell>
        <mxCell id="DXEIe3DoM291hjlUbm1r-72" value="+ arr: tool**&lt;div&gt;- K: King&lt;/div&gt;&lt;div&gt;- k: King&lt;/div&gt;" style="text;strokeColor=none;fillColor=none;align=left;verticalAlign=top;spacingLeft=4;spacingRight=4;overflow=hidden;rotatable=0;points=[[0,0.5],[1,0.5]];portConstraint=eastwest;whiteSpace=wrap;html=1;" vertex="1" parent="DXEIe3DoM291hjlUbm1r-71">
          <mxGeometry y="26" width="180" height="54" as="geometry" />
        </mxCell>
        <mxCell id="DXEIe3DoM291hjlUbm1r-73" value="" style="line;strokeWidth=1;fillColor=none;align=left;verticalAlign=middle;spacingTop=-1;spacingLeft=3;spacingRight=3;rotatable=0;labelPosition=right;points=[];portConstraint=eastwest;strokeColor=inherit;" vertex="1" parent="DXEIe3DoM291hjlUbm1r-71">
          <mxGeometry y="80" width="180" height="8" as="geometry" />
        </mxCell>
        <mxCell id="DXEIe3DoM291hjlUbm1r-74" value="void remove(int, char)&lt;div&gt;void print()&lt;/div&gt;&lt;div&gt;string boardString()&lt;/div&gt;&lt;div&gt;&amp;nbsp;bool isTheMoveLegal(int, char)&lt;/div&gt;" style="text;strokeColor=none;fillColor=none;align=left;verticalAlign=top;spacingLeft=4;spacingRight=4;overflow=hidden;rotatable=0;points=[[0,0.5],[1,0.5]];portConstraint=eastwest;whiteSpace=wrap;html=1;" vertex="1" parent="DXEIe3DoM291hjlUbm1r-71">
          <mxGeometry y="88" width="180" height="80" as="geometry" />
        </mxCell>
        <mxCell id="DXEIe3DoM291hjlUbm1r-75" value="Bishop" style="swimlane;fontStyle=1;align=center;verticalAlign=top;childLayout=stackLayout;horizontal=1;startSize=26;horizontalStack=0;resizeParent=1;resizeParentMax=0;resizeLast=0;collapsible=1;marginBottom=0;whiteSpace=wrap;html=1;fillColor=#f8cecc;strokeColor=#b85450;" vertex="1" parent="1">
          <mxGeometry x="615" y="660" width="160" height="90" as="geometry" />
        </mxCell>
        <mxCell id="DXEIe3DoM291hjlUbm1r-76" value="" style="line;strokeWidth=1;fillColor=none;align=left;verticalAlign=middle;spacingTop=-1;spacingLeft=3;spacingRight=3;rotatable=0;labelPosition=right;points=[];portConstraint=eastwest;strokeColor=inherit;" vertex="1" parent="DXEIe3DoM291hjlUbm1r-75">
          <mxGeometry y="26" width="160" height="8" as="geometry" />
        </mxCell>
        <mxCell id="DXEIe3DoM291hjlUbm1r-77" value="&lt;div&gt;void move(char, int)&lt;/div&gt;&lt;div&gt;&lt;div&gt;bool isBloced(int, char)&lt;/div&gt;&lt;/div&gt;&lt;div&gt;bool checkChess()&lt;br&gt;&lt;div&gt;&lt;br&gt;&lt;/div&gt;&lt;/div&gt;" style="text;strokeColor=none;fillColor=none;align=left;verticalAlign=top;spacingLeft=4;spacingRight=4;overflow=hidden;rotatable=0;points=[[0,0.5],[1,0.5]];portConstraint=eastwest;whiteSpace=wrap;html=1;" vertex="1" parent="DXEIe3DoM291hjlUbm1r-75">
          <mxGeometry y="34" width="160" height="56" as="geometry" />
        </mxCell>
        <mxCell id="DXEIe3DoM291hjlUbm1r-78" value="Queen" style="swimlane;fontStyle=1;align=center;verticalAlign=top;childLayout=stackLayout;horizontal=1;startSize=26;horizontalStack=0;resizeParent=1;resizeParentMax=0;resizeLast=0;collapsible=1;marginBottom=0;whiteSpace=wrap;html=1;fillColor=#e1d5e7;strokeColor=#9673a6;" vertex="1" parent="1">
          <mxGeometry x="785" y="660" width="160" height="90" as="geometry" />
        </mxCell>
        <mxCell id="DXEIe3DoM291hjlUbm1r-79" value="" style="line;strokeWidth=1;fillColor=none;align=left;verticalAlign=middle;spacingTop=-1;spacingLeft=3;spacingRight=3;rotatable=0;labelPosition=right;points=[];portConstraint=eastwest;strokeColor=inherit;" vertex="1" parent="DXEIe3DoM291hjlUbm1r-78">
          <mxGeometry y="26" width="160" height="8" as="geometry" />
        </mxCell>
        <mxCell id="DXEIe3DoM291hjlUbm1r-80" value="&lt;div&gt;void move(char, int)&lt;/div&gt;&lt;div&gt;&lt;span style=&quot;background-color: initial;&quot;&gt;bool checkChess()&lt;/span&gt;&amp;nbsp;&lt;div&gt;&lt;div&gt;bool isBloced(int, char)&lt;/div&gt;&lt;/div&gt;&lt;/div&gt;&lt;div&gt;&lt;br&gt;&lt;/div&gt;" style="text;strokeColor=none;fillColor=none;align=left;verticalAlign=top;spacingLeft=4;spacingRight=4;overflow=hidden;rotatable=0;points=[[0,0.5],[1,0.5]];portConstraint=eastwest;whiteSpace=wrap;html=1;" vertex="1" parent="DXEIe3DoM291hjlUbm1r-78">
          <mxGeometry y="34" width="160" height="56" as="geometry" />
        </mxCell>
        <mxCell id="DXEIe3DoM291hjlUbm1r-81" value="Pawn" style="swimlane;fontStyle=1;align=center;verticalAlign=top;childLayout=stackLayout;horizontal=1;startSize=26;horizontalStack=0;resizeParent=1;resizeParentMax=0;resizeLast=0;collapsible=1;marginBottom=0;whiteSpace=wrap;html=1;fillColor=#fff2cc;strokeColor=#d6b656;" vertex="1" parent="1">
          <mxGeometry x="955" y="660" width="160" height="130" as="geometry" />
        </mxCell>
        <mxCell id="DXEIe3DoM291hjlUbm1r-82" value="- firstMove: bool" style="text;strokeColor=none;fillColor=none;align=left;verticalAlign=top;spacingLeft=4;spacingRight=4;overflow=hidden;rotatable=0;points=[[0,0.5],[1,0.5]];portConstraint=eastwest;whiteSpace=wrap;html=1;" vertex="1" parent="DXEIe3DoM291hjlUbm1r-81">
          <mxGeometry y="26" width="160" height="26" as="geometry" />
        </mxCell>
        <mxCell id="DXEIe3DoM291hjlUbm1r-83" value="" style="line;strokeWidth=1;fillColor=none;align=left;verticalAlign=middle;spacingTop=-1;spacingLeft=3;spacingRight=3;rotatable=0;labelPosition=right;points=[];portConstraint=eastwest;strokeColor=inherit;" vertex="1" parent="DXEIe3DoM291hjlUbm1r-81">
          <mxGeometry y="52" width="160" height="8" as="geometry" />
        </mxCell>
        <mxCell id="DXEIe3DoM291hjlUbm1r-84" value="void move(char, int)&lt;div&gt;void eat(char, int)&lt;br&gt;&lt;div&gt;&lt;div&gt;&lt;div&gt;bool isBloced(int, char)&lt;/div&gt;&lt;/div&gt;&lt;div&gt;&lt;span style=&quot;background-color: initial;&quot;&gt;bool checkChess()&lt;/span&gt;&amp;nbsp;&lt;div&gt;&lt;br&gt;&lt;/div&gt;&lt;/div&gt;&lt;/div&gt;&lt;/div&gt;" style="text;strokeColor=none;fillColor=none;align=left;verticalAlign=top;spacingLeft=4;spacingRight=4;overflow=hidden;rotatable=0;points=[[0,0.5],[1,0.5]];portConstraint=eastwest;whiteSpace=wrap;html=1;" vertex="1" parent="DXEIe3DoM291hjlUbm1r-81">
          <mxGeometry y="60" width="160" height="70" as="geometry" />
        </mxCell>
        <mxCell id="DXEIe3DoM291hjlUbm1r-85" style="edgeStyle=orthogonalEdgeStyle;rounded=0;orthogonalLoop=1;jettySize=auto;html=1;exitX=0.5;exitY=0;exitDx=0;exitDy=0;dashed=1;strokeColor=#000000;" edge="1" parent="1" source="DXEIe3DoM291hjlUbm1r-62">
          <mxGeometry relative="1" as="geometry">
            <mxPoint x="562" y="600" as="targetPoint" />
            <Array as="points">
              <mxPoint x="185" y="620" />
              <mxPoint x="562" y="620" />
            </Array>
          </mxGeometry>
        </mxCell>
        <mxCell id="DXEIe3DoM291hjlUbm1r-86" style="edgeStyle=orthogonalEdgeStyle;rounded=0;orthogonalLoop=1;jettySize=auto;html=1;exitX=0.5;exitY=0;exitDx=0;exitDy=0;dashed=1;" edge="1" parent="1" source="DXEIe3DoM291hjlUbm1r-67">
          <mxGeometry relative="1" as="geometry">
            <mxPoint x="576" y="600" as="targetPoint" />
            <Array as="points">
              <mxPoint x="355" y="630" />
              <mxPoint x="576" y="630" />
            </Array>
          </mxGeometry>
        </mxCell>
        <mxCell id="DXEIe3DoM291hjlUbm1r-87" style="edgeStyle=orthogonalEdgeStyle;rounded=0;orthogonalLoop=1;jettySize=auto;html=1;exitX=0.5;exitY=0;exitDx=0;exitDy=0;dashed=1;" edge="1" parent="1">
          <mxGeometry relative="1" as="geometry">
            <Array as="points">
              <mxPoint x="525" y="640" />
              <mxPoint x="598" y="640" />
              <mxPoint x="598" y="600" />
            </Array>
            <mxPoint x="525" y="649.9999999999999" as="sourcePoint" />
            <mxPoint x="598" y="600" as="targetPoint" />
          </mxGeometry>
        </mxCell>
        <mxCell id="DXEIe3DoM291hjlUbm1r-88" style="edgeStyle=orthogonalEdgeStyle;rounded=0;orthogonalLoop=1;jettySize=auto;html=1;exitX=0.5;exitY=0;exitDx=0;exitDy=0;entryX=0.85;entryY=1;entryDx=0;entryDy=0;entryPerimeter=0;dashed=1;" edge="1" parent="1">
          <mxGeometry relative="1" as="geometry">
            <Array as="points">
              <mxPoint x="1035" y="630" />
              <mxPoint x="676" y="630" />
            </Array>
            <mxPoint x="1035" y="675" as="sourcePoint" />
            <mxPoint x="676" y="600" as="targetPoint" />
          </mxGeometry>
        </mxCell>
        <mxCell id="DXEIe3DoM291hjlUbm1r-89" style="edgeStyle=orthogonalEdgeStyle;rounded=0;orthogonalLoop=1;jettySize=auto;html=1;exitX=0.5;exitY=0;exitDx=0;exitDy=0;dashed=1;" edge="1" parent="1" source="DXEIe3DoM291hjlUbm1r-75">
          <mxGeometry relative="1" as="geometry">
            <mxPoint x="635" y="600" as="targetPoint" />
            <Array as="points">
              <mxPoint x="695" y="650" />
              <mxPoint x="635" y="650" />
              <mxPoint x="635" y="604" />
            </Array>
          </mxGeometry>
        </mxCell>
        <mxCell id="DXEIe3DoM291hjlUbm1r-90" style="edgeStyle=orthogonalEdgeStyle;rounded=0;orthogonalLoop=1;jettySize=auto;html=1;exitX=1;exitY=0.5;exitDx=0;exitDy=0;" edge="1" parent="1">
          <mxGeometry relative="1" as="geometry">
            <mxPoint x="695" y="400" as="sourcePoint" />
            <mxPoint x="880" y="420" as="targetPoint" />
          </mxGeometry>
        </mxCell>
        <mxCell id="DXEIe3DoM291hjlUbm1r-91" value="" style="rounded=0;orthogonalLoop=1;jettySize=auto;html=1;endArrow=oval;endFill=0;sketch=0;sourcePerimeterSpacing=0;targetPerimeterSpacing=0;endSize=10;" edge="1" parent="1" source="DXEIe3DoM291hjlUbm1r-93" target="DXEIe3DoM291hjlUbm1r-92">
          <mxGeometry relative="1" as="geometry">
            <mxPoint x="593" y="275" as="sourcePoint" />
          </mxGeometry>
        </mxCell>
        <mxCell id="DXEIe3DoM291hjlUbm1r-92" value="" style="ellipse;whiteSpace=wrap;html=1;align=center;aspect=fixed;fillColor=none;strokeColor=none;resizable=0;perimeter=centerPerimeter;rotatable=0;allowArrows=0;points=[];outlineConnect=1;" vertex="1" parent="1">
          <mxGeometry x="603" y="210" width="10" height="10" as="geometry" />
        </mxCell>
        <mxCell id="DXEIe3DoM291hjlUbm1r-93" value="" style="ellipse;whiteSpace=wrap;html=1;aspect=fixed;" vertex="1" parent="1">
          <mxGeometry x="583" y="210" width="10" height="10" as="geometry" />
        </mxCell>
        <mxCell id="DXEIe3DoM291hjlUbm1r-94" style="edgeStyle=orthogonalEdgeStyle;rounded=0;orthogonalLoop=1;jettySize=auto;html=1;exitX=0.5;exitY=0;exitDx=0;exitDy=0;dashed=1;" edge="1" parent="1">
          <mxGeometry relative="1" as="geometry">
            <mxPoint x="655" y="600" as="targetPoint" />
            <Array as="points">
              <mxPoint x="865" y="640" />
              <mxPoint x="655" y="640" />
            </Array>
            <mxPoint x="865" y="660" as="sourcePoint" />
          </mxGeometry>
        </mxCell>
        <mxCell id="DXEIe3DoM291hjlUbm1r-95" value="Kinght" style="swimlane;fontStyle=1;align=center;verticalAlign=top;childLayout=stackLayout;horizontal=1;startSize=26;horizontalStack=0;resizeParent=1;resizeParentMax=0;resizeLast=0;collapsible=1;marginBottom=0;whiteSpace=wrap;html=1;fillColor=#E8BA8B;strokeColor=#FFCC99;" vertex="1" parent="1">
          <mxGeometry x="446" y="660" width="160" height="70" as="geometry" />
        </mxCell>
        <mxCell id="DXEIe3DoM291hjlUbm1r-96" value="" style="text;strokeColor=#FFCC99;fillColor=none;align=left;verticalAlign=top;spacingLeft=4;spacingRight=4;overflow=hidden;rotatable=0;points=[[0,0.5],[1,0.5]];portConstraint=eastwest;whiteSpace=wrap;html=1;" vertex="1" parent="DXEIe3DoM291hjlUbm1r-95">
          <mxGeometry y="26" width="160" height="4" as="geometry" />
        </mxCell>
        <mxCell id="DXEIe3DoM291hjlUbm1r-97" value="void move(char, int)&lt;div&gt;bool checkChess()&lt;br&gt;&lt;div&gt;&lt;br&gt;&lt;/div&gt;&lt;/div&gt;" style="text;strokeColor=#FFCC99;fillColor=none;align=left;verticalAlign=top;spacingLeft=4;spacingRight=4;overflow=hidden;rotatable=0;points=[[0,0.5],[1,0.5]];portConstraint=eastwest;whiteSpace=wrap;html=1;" vertex="1" parent="DXEIe3DoM291hjlUbm1r-95">
          <mxGeometry y="30" width="160" height="40" as="geometry" />
        </mxCell>
        <mxCell id="DXEIe3DoM291hjlUbm1r-98" value="Actor" style="shape=umlActor;verticalLabelPosition=bottom;verticalAlign=top;html=1;" vertex="1" parent="1">
          <mxGeometry x="628" y="217" width="30" height="60" as="geometry" />
        </mxCell>
        <mxCell id="DXEIe3DoM291hjlUbm1r-99" value="" style="verticalLabelPosition=bottom;verticalAlign=top;html=1;shape=mxgraph.basic.smiley" vertex="1" parent="1">
          <mxGeometry x="634.75" y="216" width="16.5" height="20" as="geometry" />
        </mxCell>
        <mxCell id="DXEIe3DoM291hjlUbm1r-100" value="" style="shape=mxgraph.arrows2.wedgeArrow;html=1;bendable=0;startWidth=7.397260273972602;fillColor=strokeColor;defaultFillColor=invert;defaultGradientColor=invert;rounded=0;exitX=0.649;exitY=0.202;exitDx=0;exitDy=0;exitPerimeter=0;" edge="1" parent="1">
          <mxGeometry width="100" height="100" relative="1" as="geometry">
            <mxPoint x="642.9285" y="218" as="sourcePoint" />
            <mxPoint x="643" y="206" as="targetPoint" />
          </mxGeometry>
        </mxCell>
        <mxCell id="DXEIe3DoM291hjlUbm1r-101" style="edgeStyle=orthogonalEdgeStyle;rounded=0;orthogonalLoop=1;jettySize=auto;html=1;entryX=1.024;entryY=0.174;entryDx=0;entryDy=0;entryPerimeter=0;" edge="1" parent="1" source="DXEIe3DoM291hjlUbm1r-74" target="DXEIe3DoM291hjlUbm1r-57">
          <mxGeometry relative="1" as="geometry" />
        </mxCell>
        <mxCell id="DXEIe3DoM291hjlUbm1r-102" style="edgeStyle=orthogonalEdgeStyle;rounded=0;orthogonalLoop=1;jettySize=auto;html=1;entryX=1;entryY=0;entryDx=0;entryDy=0;" edge="1" parent="1" source="DXEIe3DoM291hjlUbm1r-103" target="DXEIe3DoM291hjlUbm1r-71">
          <mxGeometry relative="1" as="geometry">
            <Array as="points">
              <mxPoint x="920" y="398" />
              <mxPoint x="980" y="398" />
            </Array>
          </mxGeometry>
        </mxCell>
        <mxCell id="DXEIe3DoM291hjlUbm1r-103" value="GameManger" style="swimlane;fontStyle=1;align=center;verticalAlign=top;childLayout=stackLayout;horizontal=1;startSize=26;horizontalStack=0;resizeParent=1;resizeParentMax=0;resizeLast=0;collapsible=1;marginBottom=0;whiteSpace=wrap;html=1;fillColor=#e6d0de;gradientColor=#d5739d;strokeColor=#996185;" vertex="1" parent="1">
          <mxGeometry x="810" y="290" width="160" height="86" as="geometry" />
        </mxCell>
        <mxCell id="DXEIe3DoM291hjlUbm1r-104" value="- board: Board" style="text;strokeColor=none;fillColor=none;align=left;verticalAlign=top;spacingLeft=4;spacingRight=4;overflow=hidden;rotatable=0;points=[[0,0.5],[1,0.5]];portConstraint=eastwest;whiteSpace=wrap;html=1;" vertex="1" parent="DXEIe3DoM291hjlUbm1r-103">
          <mxGeometry y="26" width="160" height="26" as="geometry" />
        </mxCell>
        <mxCell id="DXEIe3DoM291hjlUbm1r-105" value="" style="line;strokeWidth=1;fillColor=none;align=left;verticalAlign=middle;spacingTop=-1;spacingLeft=3;spacingRight=3;rotatable=0;labelPosition=right;points=[];portConstraint=eastwest;strokeColor=inherit;" vertex="1" parent="DXEIe3DoM291hjlUbm1r-103">
          <mxGeometry y="52" width="160" height="8" as="geometry" />
        </mxCell>
        <mxCell id="DXEIe3DoM291hjlUbm1r-106" value="start()" style="text;strokeColor=none;fillColor=none;align=left;verticalAlign=top;spacingLeft=4;spacingRight=4;overflow=hidden;rotatable=0;points=[[0,0.5],[1,0.5]];portConstraint=eastwest;whiteSpace=wrap;html=1;" vertex="1" parent="DXEIe3DoM291hjlUbm1r-103">
          <mxGeometry y="60" width="160" height="26" as="geometry" />
        </mxCell>
      </root>
    </mxGraphModel>
  </diagram>
</mxfile>
